<mxfile host="65bd71144e">
    <diagram id="sUuoG945I69sUyNxzHtp" name="Page-1">
        <mxGraphModel dx="979" dy="459" grid="1" gridSize="10" guides="1" tooltips="1" connect="1" arrows="1" fold="1" page="1" pageScale="1" pageWidth="850" pageHeight="1100" math="0" shadow="0">
            <root>
                <mxCell id="0"/>
                <mxCell id="1" parent="0"/>
                <mxCell id="2" value="Landing Page" style="rounded=0;whiteSpace=wrap;html=1;" vertex="1" parent="1">
                    <mxGeometry x="290" y="1050" width="210" height="100" as="geometry"/>
                </mxCell>
                <mxCell id="3" value="Login" style="rounded=1;whiteSpace=wrap;html=1;" vertex="1" parent="1">
                    <mxGeometry x="335" y="1270" width="120" height="60" as="geometry"/>
                </mxCell>
                <mxCell id="4" value="Get Task Mo/Sign Up" style="rounded=1;whiteSpace=wrap;html=1;" vertex="1" parent="1">
                    <mxGeometry x="180" y="1270" width="120" height="60" as="geometry"/>
                </mxCell>
                <mxCell id="5" value="Get Started" style="rounded=1;whiteSpace=wrap;html=1;" vertex="1" parent="1">
                    <mxGeometry x="490" y="1270" width="120" height="60" as="geometry"/>
                </mxCell>
                <mxCell id="8" value="" style="endArrow=classic;html=1;entryX=0.5;entryY=0;entryDx=0;entryDy=0;exitX=0.5;exitY=1;exitDx=0;exitDy=0;" edge="1" parent="1" source="2" target="4">
                    <mxGeometry width="50" height="50" relative="1" as="geometry">
                        <mxPoint x="430" y="1260" as="sourcePoint"/>
                        <mxPoint x="480" y="1210" as="targetPoint"/>
                        <Array as="points">
                            <mxPoint x="395" y="1210"/>
                            <mxPoint x="240" y="1210"/>
                        </Array>
                    </mxGeometry>
                </mxCell>
                <mxCell id="9" value="" style="endArrow=classic;html=1;entryX=0.5;entryY=0;entryDx=0;entryDy=0;" edge="1" parent="1" target="5">
                    <mxGeometry width="50" height="50" relative="1" as="geometry">
                        <mxPoint x="395" y="1150" as="sourcePoint"/>
                        <mxPoint x="240" y="1270" as="targetPoint"/>
                        <Array as="points">
                            <mxPoint x="395" y="1210"/>
                            <mxPoint x="550" y="1210"/>
                        </Array>
                    </mxGeometry>
                </mxCell>
                <mxCell id="10" value="" style="endArrow=classic;html=1;exitX=0.5;exitY=1;exitDx=0;exitDy=0;entryX=0.5;entryY=0;entryDx=0;entryDy=0;" edge="1" parent="1" source="2" target="3">
                    <mxGeometry width="50" height="50" relative="1" as="geometry">
                        <mxPoint x="420" y="1260" as="sourcePoint"/>
                        <mxPoint x="470" y="1210" as="targetPoint"/>
                    </mxGeometry>
                </mxCell>
                <mxCell id="12" value="Clerk Authentication Provider&lt;br&gt;Login/Sign-up" style="rounded=0;whiteSpace=wrap;html=1;" vertex="1" parent="1">
                    <mxGeometry x="290" y="1440" width="210" height="100" as="geometry"/>
                </mxCell>
                <mxCell id="14" value="" style="endArrow=classic;html=1;exitX=0.5;exitY=1;exitDx=0;exitDy=0;entryX=0.5;entryY=0;entryDx=0;entryDy=0;" edge="1" parent="1" source="3" target="12">
                    <mxGeometry width="50" height="50" relative="1" as="geometry">
                        <mxPoint x="394.09" y="1350" as="sourcePoint"/>
                        <mxPoint x="394.09" y="1470" as="targetPoint"/>
                    </mxGeometry>
                </mxCell>
                <mxCell id="16" value="" style="endArrow=classic;html=1;exitX=0.5;exitY=1;exitDx=0;exitDy=0;entryX=0.5;entryY=0;entryDx=0;entryDy=0;" edge="1" parent="1" source="4" target="12">
                    <mxGeometry width="50" height="50" relative="1" as="geometry">
                        <mxPoint x="405" y="1340" as="sourcePoint"/>
                        <mxPoint x="405" y="1450" as="targetPoint"/>
                        <Array as="points">
                            <mxPoint x="240" y="1400"/>
                            <mxPoint x="395" y="1400"/>
                        </Array>
                    </mxGeometry>
                </mxCell>
                <mxCell id="17" value="" style="endArrow=classic;html=1;exitX=0.5;exitY=1;exitDx=0;exitDy=0;entryX=0.5;entryY=0;entryDx=0;entryDy=0;" edge="1" parent="1" source="5" target="12">
                    <mxGeometry width="50" height="50" relative="1" as="geometry">
                        <mxPoint x="249.9999999999999" y="1340" as="sourcePoint"/>
                        <mxPoint x="405" y="1450" as="targetPoint"/>
                        <Array as="points">
                            <mxPoint x="550" y="1400"/>
                            <mxPoint x="395" y="1400"/>
                        </Array>
                    </mxGeometry>
                </mxCell>
                <mxCell id="18" value="Clerkk Server" style="shape=parallelogram;perimeter=parallelogramPerimeter;whiteSpace=wrap;html=1;fixedSize=1;" vertex="1" parent="1">
                    <mxGeometry x="610" y="1460" width="140" height="60" as="geometry"/>
                </mxCell>
                <mxCell id="19" value="" style="endArrow=classic;startArrow=classic;html=1;entryX=0;entryY=0.5;entryDx=0;entryDy=0;exitX=1;exitY=0.5;exitDx=0;exitDy=0;" edge="1" parent="1" source="12" target="18">
                    <mxGeometry width="50" height="50" relative="1" as="geometry">
                        <mxPoint x="330" y="1370" as="sourcePoint"/>
                        <mxPoint x="380" y="1320" as="targetPoint"/>
                    </mxGeometry>
                </mxCell>
            </root>
        </mxGraphModel>
    </diagram>
</mxfile>